# xmcd CD database file
#
# Track frame offsets:
#	150
#	5696
#	26832
#	47995
#	68973
#	89110
#	115439
#	131581
#	155603
#	169900
#	191678
#	213229
#
# Disc length: 3102 seconds
#
# Revision: 0
# Processed by: cddbd v1.5.2PL0 Copyright (c) Steve Scherf et al.
# Submitted via: CDex 1.51
#
DISCID=b50c1c0c
DTITLE=native - UPSTAIRS
DYEAR=2006
DGENRE=Jazz
TTITLE0=One Night - Introduction -
TTITLE1=Prussian Blue
TTITLE2=Beyond The Border
TTITLE3=Reach To The Sky
TTITLE4=The Secret Language
TTITLE5=Upstairs
TTITLE6=Psychedelic
TTITLE7=Tradition
TTITLE8=Step It!
TTITLE9=Transparent
TTITLE10=Encyclopedia
TTITLE11=4 Corners
EXTD=YEAR: 2006
EXTT0=
EXTT1=
EXTT2=
EXTT3=
EXTT4=
EXTT5=
EXTT6=
EXTT7=
EXTT8=
EXTT9=
EXTT10=
EXTT11=
PLAYORDER=
